<!--?xml version="1.0" standalone="no"?-->
              <svg id="sw-js-blob-svg" viewBox="0 0 100 100" xmlns="http://www.w3.org/2000/svg" version="1.1">
                    <defs> 
                        <linearGradient id="sw-gradient" x1="0" x2="1" y1="1" y2="0">
                            <stop id="stop1" stop-color="rgba(0, 87, 255, 1)" offset="0%"></stop>
                            <stop id="stop2" stop-color="rgba(255, 255, 255, 1)" offset="100%"></stop>
                        </linearGradient>
                    </defs>
                <path fill="url(#sw-gradient)" d="M18.4,-30C22.3,-26.1,22.9,-18.4,23.6,-12.2C24.3,-5.9,25,-1.1,24.1,3.2C23.1,7.6,20.4,11.4,17.8,16.8C15.3,22.1,12.9,28.9,8.2,32.2C3.5,35.6,-3.4,35.5,-9.6,33.3C-15.7,31.2,-20.9,26.9,-26.1,22C-31.2,17.1,-36.2,11.5,-37.8,5C-39.5,-1.5,-37.8,-9,-32.9,-13.1C-28,-17.2,-20,-17.9,-14,-20.9C-8,-23.9,-4,-29.2,1.6,-31.7C7.2,-34.2,14.4,-33.9,18.4,-30Z" width="100%" height="100%" transform="translate(50 50)" stroke-width="0" style="transition: all 0.3s ease 0s;" stroke="url(#sw-gradient)"></path>
              </svg>