<svg width="34" height="34" viewBox="0 0 34 34" fill="none" xmlns="http://www.w3.org/2000/svg">
<g clip-path="url(#clip0_2258_3019)">
<rect width="34" height="34" rx="7" fill="#FF2990"/>
<rect x="17" y="17" width="17" height="17" fill="#F1F3F6"/>
<path d="M6 4.5H11L10.5 5.5H8.87C9.11 5.79 9.29 6.13 9.395 6.5H11L10.5 7.5H9.5C9.43804 8.12338 9.16727 8.70753 8.73162 9.1577C8.29598 9.60787 7.72101 9.89764 7.1 9.98V10H6.75L9.75 13.5H8.5L5.5 10V9H6.75C7.63 9 8.36 8.35 8.48 7.5H5.5L6 6.5H8.33C8.05 5.91 7.45 5.5 6.75 5.5H5.5L6 4.5Z" fill="white"/>
<path d="M21.8333 27.7916V26.4166H29.1666V27.7916H21.8333ZM21.8333 24.5833V23.2083H29.1666V24.5833H21.8333Z" fill="black"/>
<path d="M5.08337 27.9167L10.9167 22.0834" stroke="white" stroke-linecap="round" stroke-linejoin="round"/>
<path d="M5.91669 24.1667C6.60704 24.1667 7.16669 23.607 7.16669 22.9167C7.16669 22.2263 6.60704 21.6667 5.91669 21.6667C5.22633 21.6667 4.66669 22.2263 4.66669 22.9167C4.66669 23.607 5.22633 24.1667 5.91669 24.1667Z" stroke="white" stroke-linecap="round" stroke-linejoin="round"/>
<path d="M10.0834 28.3334C10.7737 28.3334 11.3334 27.7737 11.3334 27.0834C11.3334 26.393 10.7737 25.8334 10.0834 25.8334C9.39302 25.8334 8.83337 26.393 8.83337 27.0834C8.83337 27.7737 9.39302 28.3334 10.0834 28.3334Z" stroke="white" stroke-linecap="round" stroke-linejoin="round"/>
<path fill-rule="evenodd" clip-rule="evenodd" d="M25.27 4.02753L30.04 8.37753L29.5075 8.91003L28.75 8.22303V13.1175L28.375 13.4925H26.125L25.75 13.1175V10.4925H24.25V13.1175L23.875 13.4925H21.625L21.25 13.1175V8.22903L20.5 8.91003L19.9675 8.37753L24.73 4.02753H25.27ZM22 7.54728V12.7425H23.5V10.1175L23.875 9.74253H26.125L26.5 10.1175V12.7425H28V7.54278L25 4.82253L22 7.54728Z" fill="white" stroke="white" stroke-width="0.2"/>
<line x1="17.1" y1="4.37114e-09" x2="17.1" y2="34" stroke="black" stroke-width="0.2"/>
<line y1="16.9" x2="34" y2="16.9" stroke="black" stroke-width="0.2"/>
</g>
<defs>
<clipPath id="clip0_2258_3019">
<rect width="34" height="34" rx="7" fill="white"/>
</clipPath>
</defs>
</svg>
